<svg width="155" height="155" viewBox="0 0 155 155" fill="none" xmlns="http://www.w3.org/2000/svg">
<path d="M92.8457 106.522C108.753 98.1686 114.878 78.5013 106.525 62.5934C98.1723 46.6853 78.5049 40.5607 62.597 48.9137C46.6889 57.2666 40.5643 76.9344 48.9172 92.8421C57.2701 108.751 76.9373 114.875 92.8457 106.522Z" stroke="#D91966" stroke-width="1.46919" stroke-miterlimit="10"/>
<path d="M111.297 105.808C126.81 87.2628 124.352 59.6539 105.807 44.1411C87.2621 28.6284 59.6532 31.0863 44.1404 49.6311C28.6277 68.1758 31.0856 95.7849 49.6303 111.297C68.175 126.811 95.7841 124.353 111.297 105.808Z" stroke="#D91966" stroke-width="1.46919" stroke-miterlimit="10"/>
<path d="M95.458 111.497C76.83 121.278 53.7182 114.081 43.9371 95.4535C34.156 76.8256 41.3534 53.7133 59.9813 43.9322C78.6092 34.1511 101.721 41.3484 111.502 59.9764C121.283 78.6041 114.083 101.718 95.458 111.497Z" stroke="#D91966" stroke-width="1.46919" stroke-miterlimit="10"/>
<path d="M92.8457 106.522C108.753 98.1686 114.878 78.5013 106.525 62.5934C98.1723 46.6853 78.5049 40.5607 62.597 48.9137C46.6889 57.2666 40.5643 76.9344 48.9172 92.8421C57.2701 108.751 76.9373 114.875 92.8457 106.522Z" stroke="#D91966" stroke-width="1.46919" stroke-miterlimit="10"/>
<path d="M90.041 101.18C102.999 94.3766 107.987 78.3573 101.183 65.3995C94.3795 52.4419 78.3602 47.4533 65.4025 54.257C52.445 61.0606 47.4563 77.0805 54.26 90.0374C61.0637 102.995 77.0835 107.984 90.041 101.18Z" stroke="#D91966" stroke-width="1.46919" stroke-miterlimit="10"/>
<path d="M87.4714 96.2866C97.7264 90.902 101.674 78.2243 96.2903 67.9692C90.9057 57.7144 78.2273 53.7663 67.9724 59.1509C57.7177 64.5354 53.7696 77.2135 59.1541 87.4685C64.5386 97.7227 77.2165 101.671 87.4714 96.2866Z" stroke="#D91966" stroke-width="1.46919" stroke-miterlimit="10"/>
<path d="M109.947 56.3532C115.493 53.4411 117.628 46.5846 114.716 41.0386C111.804 35.4927 104.947 33.3574 99.4013 36.2695C93.8558 39.1815 91.7203 46.0381 94.6323 51.5841C97.5442 57.1301 104.401 59.2652 109.947 56.3532Z" fill="#3F3F3F"/>
</svg>
